PathFileType        4      (X/Y/Z)      C:\Users\pc\Desktop\IMUTRC\Sujet_08\Sujet_08_Tpose.trc         
DataRate	CameraRate	NumFrames	NumMarkers	Units	OrigDataRate	OrigDataStartFrame	OrigNumFrames
60.0	60.0	4	64	mm	60.0	41	163
Frame#	Time	pHipOrigin			pRightASI			pLeftASI			pRightCSI			pLeftCSI			pRightIschialTub			pLeftIschialTub			pSacrum			pL5SpinalProcess			pL3SpinalProcess			pT12SpinalProcess			pIJ			pT4SpinalProcess			pT8SpinalProcess			pPX			pC7SpinalProcess			pTopOfHead			pRightAuricularis			pLeftAuricularis			pBackOfHead			pRightAcromion			pLeftAcromion			pRightArmLatEpicondyle			pRightArmMedEpicondyle			pLeftArmLatEpicondyle			pLeftArmMedEpicondyle			pRightUlnarStyloid			pRightRadialStyloid			pRightOlecranon			pLeftUlnarStyloid			pLeftRadialStyloid			pLeftOlecranon			pRightTopOfHand			pRightPinky			pRightBallHand			pLeftTopOfHand			pLeftPinky			pLeftBallHand			pRightGreaterTrochanter			pRightKneeLatEpicondyle			pRightKneeMedEpicondyle			pRightPatella			pLeftGreaterTrochanter			pLeftKneeLatEpicondyle			pLeftKneeMedEpicondyle			pLeftPatella			pRightTibialTub			pRightLatMalleolus			pRightMedMalleolus			pLeftTibialTub			pLeftLatMalleolus			pLeftMedMalleolus			pRightHeelFoot			pRightFirstMetatarsal			pRightFifthMetatarsal			pRightPivotFoot			pRightHeelCenter			pRightToe			pLeftHeelFoot			pLeftFirstMetatarsal			pLeftFifthMetatarsal			pLeftPivotFoot			pLeftHeelCenter			pLeftToe			
		X1	Y1	Z1	X2	Y2	Z2	X3	Y3	Z3	X4	Y4	Z4	X5	Y5	Z5	X6	Y6	Z6	X7	Y7	Z7	X8	Y8	Z8	X9	Y9	Z9	X10	Y10	Z10	X11	Y11	Z11	X12	Y12	Z12	X13	Y13	Z13	X14	Y14	Z14	X15	Y15	Z15	X16	Y16	Z16	X17	Y17	Z17	X18	Y18	Z18	X19	Y19	Z19	X20	Y20	Z20	X21	Y21	Z21	X22	Y22	Z22	X23	Y23	Z23	X24	Y24	Z24	X25	Y25	Z25	X26	Y26	Z26	X27	Y27	Z27	X28	Y28	Z28	X29	Y29	Z29	X30	Y30	Z30	X31	Y31	Z31	X32	Y32	Z32	X33	Y33	Z33	X34	Y34	Z34	X35	Y35	Z35	X36	Y36	Z36	X37	Y37	Z37	X38	Y38	Z38	X39	Y39	Z39	X40	Y40	Z40	X41	Y41	Z41	X42	Y42	Z42	X43	Y43	Z43	X44	Y44	Z44	X45	Y45	Z45	X46	Y46	Z46	X47	Y47	Z47	X48	Y48	Z48	X49	Y49	Z49	X50	Y50	Z50	X51	Y51	Z51	X52	Y52	Z52	X53	Y53	Z53	X54	Y54	Z54	X55	Y55	Z55	X56	Y56	Z56	X57	Y57	Z57	X58	Y58	Z58	X59	Y59	Z59	X60	Y60	Z60	X61	Y61	Z61	X62	Y62	Z62	X63	Y63	Z63	X64	Y64	Z64	
41	0.667	2471.5000710057875	911.7907900000001	-987.5864202371282	2533.265001780415	1013.58562	-857.2938886498945	2533.1772758058696	1008.5766600000001	-1121.611228763365	2487.3718482295203	1076.76304	-881.9072701360658	2487.3394048412983	1072.56198	-1099.606357866688	2419.177977575481	855.3996900000001	-932.1762478529708	2419.2376719381027	853.2991600000001	-1040.9981552124395	2405.5692205961723	930.0492300000001	-987.8543471114173	2436.9336862413033	1019.5640400000001	-988.9908793572764	2433.827769459732	1130.24572	-989.4335518797475	2416.28194019893	1229.77843	-988.9417496124631	2517.623199296694	1463.58337	-993.8401258865359	2382.3909892856755	1413.65544	-987.005294998524	2395.4504420249473	1328.82641	-987.9263558680193	2540.3046157020412	1348.53906	-995.2139035257967	2375.2558746029295	1468.7539	-993.3851396560502	2442.568872145508	1714.83885	-998.8043148418124	2393.5988579286645	1630.49457	-935.1241737028427	2472.040962518232	1611.10508	-1042.9290429810374	2390.200413853334	1622.09246	-1020.2721620554705	2411.6108421418157	1444.51704	-831.0733391433596	2381.7612729583707	1433.20651	-1145.4274560068907	2437.291630256658	1427.22808	-564.3188374190507	2495.7289949058386	1409.13122	-572.2806794103774	2389.681156395656	1408.00017	-1412.8484772781749	2450.3513863333237	1397.49753	-1408.9929072133039	2473.9698221215544	1344.01485	-327.7794249325936	2469.5761132960215	1393.94279	-314.7629525168261	2466.2713984998372	1394.26594	-577.3280547327926	2342.164644575997	1343.53011	-1643.703577535815	2331.564687826514	1393.78121	-1650.484782991462	2423.5553561903425	1378.26962	-1404.8180016716833	2503.3018897779302	1329.14957	-131.05474720844146	2494.355338257283	1305.23587	-220.80130791126945	2490.4824162122773	1341.91432	-288.5832037610547	2331.5506737306528	1318.00062	-1837.0544114263942	2340.414051015323	1299.41902	-1746.1344747583826	2349.064183150461	1340.13695	-1681.0844913057913	2464.895310900203	887.23077	-826.2950302129133	2421.3410974136495	492.81622000000004	-824.2647900910991	2426.802655481552	485.7067400000001	-900.685627648358	2467.1421219246613	487.32253000000003	-861.7584728687875	2464.107012176559	884.9686600000001	-1149.1580359782492	2430.90936404498	489.58463000000006	-1157.6300662953327	2438.2862136542417	481.3441000000001	-1081.5229440527012	2477.6549197242034	484.73726000000005	-1121.1858494357766	2476.2935058672488	452.74460000000005	-858.0837418223905	2393.034552168519	84.34428000000004	-800.3497024963804	2397.235101604873	79.01217000000005	-860.5504705224392	2485.704382250733	448.05881000000005	-1125.8218352641406	2391.215758209452	83.05165000000007	-1186.5210591119776	2396.9408341095805	76.58849000000006	-1126.6624840463683	2357.816711582622	2.5852700000000515	-839.6480752492964	2516.020044358786	2.100530000000052	-847.2353897514948	2502.359414457519	4.738150936100204E-14	-773.7987702901914	2530.171944025661	0.8079000000000494	-807.6947528128758	2394.327920454748	4.84737000000005	-832.7211836812918	2608.4399253567017	-0.6463199999999515	-793.1353895806617	2356.956958309852	0.16158000000007067	-1154.283538375848	2514.9481792997262	-0.4847399999999299	-1144.7531772247048	2502.2833587814994	3.2315800000000747	-1218.1423389605504	2529.7721436531174	1.4542100000000726	-1184.0643996075125	2393.568650164201	3.070000000000071	-1160.3881983228239	2608.296892533509	1.1310500000000734	-1197.6111954977155	
42	0.683	2471.7071701542122	911.7907900000001	-987.6829921560362	2533.1131662467483	1013.58562	-857.3491522646532	2533.232539420628	1008.5766600000001	-1121.7630642970316	2487.0681771621867	1076.76304	-882.017797365583	2487.1875693076317	1072.72356	-1099.6616214814467	2419.385076723906	855.2381100000001	-932.2728197718789	2419.444771086528	853.1375800000001	-1041.0947271313476	2405.624484210931	929.8876500000001	-988.0061826450839	2436.988949856062	1019.5640400000001	-989.142714890943	2433.7311975408234	1130.24572	-989.6406510281728	2416.1301046652634	1229.77843	-988.9970132272217	2517.719771215602	1463.42179	-993.6330267381107	2382.3909892856755	1413.65544	-987.005294998524	2395.4504420249473	1328.82641	-987.9263558680193	2540.249352087283	1348.53906	-995.0620679921301	2375.4629737513546	1468.91548	-993.4817115749582	2443.810900011455	1714.67728	-997.4925044460952	2393.9438373001467	1630.33299	-934.6547117912338	2473.0345923285304	1611.10508	-1041.8795919283025	2391.056163440575	1622.25404	-1019.7887448332525	2411.555578527057	1444.51704	-830.921503609693	2381.7612729583707	1433.20651	-1145.4274560068907	2437.443465790325	1427.8744	-564.2635738042922	2495.880830439505	1409.61596	-572.2254157956189	2389.832991929323	1408.16175	-1412.7932136634163	2450.5032218669903	1397.33595	-1408.9376435985453	2474.0663940404625	1345.30748	-327.5723257841685	2469.8797843633547	1395.23542	-314.65242528730903	2466.2713984998372	1394.75068	-577.3280547327926	2342.371743724422	1344.01485	-1643.8001494547232	2331.923622508605	1394.26594	-1650.5260912956114	2423.707191724009	1378.43119	-1404.7627380569247	2503.5502878335787	1331.08852	-130.792387865459	2494.548482095099	1307.01324	-220.3871096144192	2490.730823664852	1343.36853	-288.3208409978708	2332.116704140968	1318.64693	-1837.1922822525253	2340.7729856974147	1300.06534	-1746.1757830625322	2349.4231178325526	1340.46011	-1681.1257996099407	2464.9505745149618	887.23077	-826.4468657465799	2421.396361028408	492.65464000000003	-824.4166256247657	2427.0097546299767	485.7067400000001	-900.782199567266	2467.3492210730865	487.32253000000003	-861.8550447876954	2464.314111324984	884.9686600000001	-1149.2546078971573	2431.1164631934053	489.58463000000006	-1157.7266382142407	2438.2862136542417	481.3441000000001	-1081.5229440527012	2477.862009475702	484.73726000000005	-1121.282424774886	2476.5006050156735	452.58302000000003	-858.1803137412986	2392.9379802496114	84.34428000000004	-800.5568016448055	2397.235101604873	79.01217000000005	-860.5504705224392	2485.911481399158	448.05881000000005	-1125.9184071830487	2391.215758209452	83.05165000000007	-1186.5210591119776	2396.9408341095805	76.58849000000006	-1126.6624840463683	2357.816711582622	2.5852700000000515	-839.6480752492964	2516.020044358786	2.100530000000052	-847.2353897514948	2502.359414457519	4.738150936100204E-14	-773.7987702901914	2530.171944025661	0.8079000000000494	-807.6947528128758	2394.383184069506	4.84737000000005	-832.8730192149584	2608.4399253567017	-0.6463199999999515	-793.1353895806617	2356.956958309852	0.16158000000007067	-1154.283538375848	2514.9481792997262	-0.4847399999999299	-1144.7531772247048	2502.2833587814994	3.2315800000000747	-1218.1423389605504	2529.7721436531174	1.2926300000000726	-1184.0643996075125	2393.568650164201	3.070000000000071	-1160.3881983228239	2608.296892533509	1.1310500000000734	-1197.6111954977155	
43	0.7	2471.762433768971	911.7907900000001	-987.8348276897026	2533.0165943278403	1013.58562	-857.5562514130783	2533.0807038869616	1008.7382400000001	-1121.8183279117902	2486.9163416285205	1076.76304	-882.0730609803416	2487.035733773965	1072.72356	-1099.7168850962053	2419.592175872331	855.2381100000001	-932.3693916907871	2419.5000347012865	853.1375800000001	-1041.2465626650142	2405.6797478256894	929.8876500000001	-988.1580181787502	2436.8371143223953	1019.5640400000001	-989.1979785057016	2433.5793714040833	1130.24572	-989.6959112227299	2416.1301046652634	1229.77843	-988.9970132272217	2517.7610795197515	1463.42179	-993.2740920560191	2382.4875612045835	1413.65544	-986.7981958500988	2395.3951784101887	1328.82641	-987.7745203343527	2540.345924006191	1348.37748	-994.8549688437046	2375.4629737513546	1468.91548	-993.4817115749582	2444.7492602302705	1714.67728	-996.2912306768217	2394.1369845581644	1630.17141	-934.2405228913095	2473.876380628438	1611.10508	-1040.8854173074542	2391.7600680972228	1622.41562	-1019.3605946459945	2411.707404663797	1444.51704	-830.8662434151358	2381.706009343612	1433.36808	-1145.275620473224	2437.5953013239914	1428.35913	-564.2083101895337	2495.880830439505	1409.93912	-572.2254157956189	2390.0813934051725	1408.32333	-1412.5308637173605	2450.655048003731	1397.49753	-1408.8823834039881	2474.314801493037	1346.43854	-327.30996302098475	2470.031619897021	1396.52805	-314.59716167255044	2466.4232246365773	1395.23542	-577.2727945382353	2342.675414791755	1344.33801	-1643.689622225206	2332.379129109605	1394.75068	-1650.3603004513357	2423.803763642917	1378.43119	-1404.5556389085	2503.7986952861534	1332.86589	-130.53002510227535	2494.7968801507477	1308.46745	-220.12475027143685	2490.979231117427	1344.66117	-288.0584782346869	2332.682737971485	1319.29325	-1837.3301624755832	2341.1319203795065	1300.55007	-1746.217091366682	2349.7820525146444	1340.94485	-1681.1671079140901	2465.0058381297204	887.06919	-826.5987012802465	2421.6034601768333	492.65464000000003	-824.5131975436739	2427.2168537784023	485.7067400000001	-900.8787714861741	2467.5563202215117	487.32253000000003	-861.9516167066034	2464.3693749397426	884.9686600000001	-1149.4064434308239	2431.3235623418304	489.58463000000006	-1157.8232101331487	2438.493312802667	481.3441000000001	-1081.6195159716094	2478.0138450093687	484.73726000000005	-1121.2271611601277	2476.555868630432	452.58302000000003	-858.3321492749654	2392.9379802496114	84.34428000000004	-800.5568016448055	2397.235101604873	79.01217000000005	-860.5504705224392	2485.911481399158	448.05881000000005	-1125.9184071830487	2391.215758209452	82.89007000000007	-1186.5210591119776	2396.9408341095805	76.58849000000006	-1126.6624840463683	2357.816711582622	2.5852700000000515	-839.6480752492964	2516.020044358786	2.100530000000052	-847.2353897514948	2502.359414457519	4.738150936100204E-14	-773.7987702901914	2530.171944025661	0.8079000000000494	-807.6947528128758	2394.383184069506	4.84737000000005	-832.8730192149584	2608.4399253567017	-0.6463199999999515	-793.1353895806617	2356.956958309852	0.16158000000007067	-1154.283538375848	2515.1000148333924	-0.4847399999999299	-1144.6979136099462	2502.2833587814994	3.2315800000000747	-1218.1423389605504	2529.7721436531174	1.2926300000000726	-1184.0643996075125	2393.568650164201	3.070000000000071	-1160.3881983228239	2608.296892533509	1.1310500000000734	-1197.6111954977155	
44	0.717	2471.665861850063	911.7907900000001	-988.0419268381278	2532.8647587941737	1013.58562	-857.6115150278368	2533.13596750172	1008.7382400000001	-1121.9701634454568	2486.76451549178	1076.76304	-882.1283211748987	2486.883907637225	1072.72356	-1099.7721452907624	2419.495603953423	855.0765300000002	-932.576490839212	2419.555298316045	853.1375800000001	-1041.3983981986808	2405.583175906781	929.7260700000002	-988.3651173271754	2436.6852787887287	1019.4024600000001	-989.2532421204601	2433.4275358704167	1130.24572	-989.7511748374884	2415.978269131597	1229.77843	-989.0522768419803	2517.8576454619347	1463.26022	-993.0670057247216	2382.4875612045835	1413.65544	-986.7981958500988	2395.2433522734486	1328.82641	-987.8297805289099	2540.2906603914325	1348.21591	-994.7031333100382	2375.5595456702627	1469.07706	-993.2746124265332	2445.5910451099758	1714.5157	-995.2970466590467	2394.178292862314	1630.00983	-933.8815882092181	2474.718165508143	1610.9435	-1039.8912332896793	2392.5192457655558	1622.5772	-1019.0842765722017	2411.707404663797	1444.51704	-830.8662434151358	2381.857844877279	1433.36808	-1145.2203568584655	2437.5953013239914	1428.84387	-564.2083101895337	2495.8255668247466	1410.42385	-572.0735802619525	2390.233228938839	1408.4849	-1412.475600102602	2450.903455456305	1397.49753	-1408.6200206408043	2474.563208945611	1347.40801	-327.0476002578011	2470.335290964354	1397.49753	-314.4866344430334	2466.367961021819	1395.72016	-577.1209590045689	2343.0343494738468	1344.66117	-1643.7309305293556	2332.889895905162	1395.07384	-1650.3463357438	2423.9555991765837	1378.59277	-1404.5003752937414	2504.3507738060607	1334.48168	-130.1571351095745	2495.197123136989	1309.76008	-219.8071238934946	2491.2828927878336	1345.79222	-287.9479544253713	2333.3453343239835	1319.61641	-1837.260946970417	2341.6426811983383	1300.87323	-1746.2031394762744	2350.237549718718	1341.268	-1681.001320490016	2464.9092662108123	887.06919	-826.8058004286715	2421.6587203713907	492.65464000000003	-824.6650236804142	2427.2721173931604	485.54516000000007	-901.0306070198407	2467.6115838362703	487.16095000000007	-862.10345224027	2464.424638554501	884.9686600000001	-1149.5582789644902	2431.3235623418304	489.58463000000006	-1157.8232101331487	2438.493312802667	481.3441000000001	-1081.6195159716094	2478.0138450093687	484.73726000000005	-1121.2271611601277	2476.7077041640987	452.58302000000003	-858.2768856602069	2392.9379802496114	84.34428000000004	-800.5568016448055	2397.235101604873	78.85059000000005	-860.5504705224392	2486.1185805475834	448.05881000000005	-1126.0149791019567	2391.215758209452	82.89007000000007	-1186.5210591119776	2396.9408341095805	76.58849000000006	-1126.6624840463683	2357.816711582622	2.5852700000000515	-839.6480752492964	2516.020044358786	2.100530000000052	-847.2353897514948	2502.359414457519	4.738150936100204E-14	-773.7987702901914	2530.171944025661	0.8079000000000494	-807.6947528128758	2394.383184069506	4.84737000000005	-832.8730192149584	2608.4399253567017	-0.6463199999999515	-793.1353895806617	2356.956958309852	0.16158000000007067	-1154.283538375848	2515.1000148333924	-0.4847399999999299	-1144.6979136099462	2502.2833587814994	3.2315800000000747	-1218.1423389605504	2529.7721436531174	1.2926300000000726	-1184.0643996075125	2393.568650164201	3.070000000000071	-1160.3881983228239	2608.296892533509	1.1310500000000734	-1197.6111954977155	
